<?xml version="1.0" encoding="UTF-8"?>
<svg id="_图层_2" data-name="图层 2" xmlns="http://www.w3.org/2000/svg" viewBox="0 0 157.39 157.39">
  <defs>
    <style>
      .cls-1 {
        fill: #f9d744;
      }

      .cls-2 {
        fill: #ee5455;
      }

      .cls-3 {
        fill: #fff;
      }
    </style>
  </defs>
  <g id="_图层_1-2" data-name="图层 1">
    <g>
      <path class="cls-3" d="M150.98,60.47c-2.61,5.13-4.63,11.96-6.7,18.99-3.48,11.8-7.43,25.17-13.88,25.17s-10.37-15.23-13.87-28.67c-4.21-16.15-8.18-31.41-17.42-31.41s-13.21,15.26-17.41,31.41c-3.5,13.44-7.46,28.67-13.87,28.67s-10.27-11.02-13.91-21.67c-4.05-11.88-8.24-24.16-17.38-24.16s-13.32,12.28-17.37,24.16c-3.42,10.01-6.94,20.34-12.76,21.55v3.71c8.34-.99,12.35-12.72,16.22-24.08,3.64-10.66,7.4-21.67,13.91-21.67s10.27,11.02,13.91,21.67c4.05,11.88,8.24,24.16,17.37,24.16s13.21-15.26,17.41-31.41c3.5-13.44,7.46-28.67,13.87-28.67s10.37,15.23,13.87,28.67c4.21,16.15,8.18,31.41,17.42,31.41s13.18-13.5,17.4-27.79c1.01-3.41,2.05-6.95,3.19-10.26v-9.77Z"/>
      <path class="cls-2" d="M128.29,108v42.98H6.41V29.1h16.28v-6.41H0v134.7h134.7v-50.24c-1.3.74-2.73,1.15-4.31,1.15-.73,0-1.43-.11-2.1-.29Z"/>
      <path class="cls-1" d="M22.69,0v73.21c1.8-4.44,3.84-8.38,6.41-11.02V6.41h121.87v121.87h-16.28v6.41h22.69V0H22.69Z"/>
      <path class="cls-2" d="M29.1,6.41v55.78c2.08-2.12,4.5-3.4,7.44-3.4,9.13,0,13.32,12.28,17.38,24.16,3.64,10.66,7.4,21.67,13.91,21.67s10.37-15.23,13.87-28.67c4.21-16.15,8.18-31.41,17.41-31.41s13.21,15.26,17.42,31.41c3.5,13.44,7.46,28.67,13.87,28.67s10.4-13.37,13.88-25.17c2.08-7.03,4.1-13.86,6.7-18.99V6.41H29.1Z"/>
      <path class="cls-1" d="M6.41,150.98h121.87v-42.98c-7.77-2.15-11.44-16.25-15.31-31.12-3.5-13.44-7.46-28.67-13.87-28.67s-10.37,15.23-13.87,28.67c-4.2,16.15-8.18,31.41-17.41,31.41s-13.32-12.28-17.37-24.16c-3.64-10.66-7.4-21.67-13.91-21.67s-10.27,11.02-13.91,21.67c-3.88,11.36-7.89,23.09-16.22,24.08v42.76Z"/>
    </g>
  </g>
</svg>