<?xml version="1.0" encoding="UTF-8"?>
<svg id="_图层_2" data-name="图层 2" xmlns="http://www.w3.org/2000/svg" viewBox="0 0 157.39 157.39">
  <defs>
    <style>
      .cls-1 {
        fill: #4d4d4d;
      }
    </style>
  </defs>
  <g id="_图层_1-2" data-name="图层 1">
    <g>
      <path class="cls-1" d="M128.29,108v42.98H6.41V29.1h16.28v-6.41H0v134.7h134.7v-50.24c-1.3.74-2.73,1.15-4.31,1.15-.73,0-1.43-.11-2.1-.29Z"/>
      <path class="cls-1" d="M22.69,0v73.21c1.8-4.44,3.84-8.38,6.41-11.02V6.41h121.87v121.87h-16.28v6.41h22.69V0H22.69Z"/>
      <path class="cls-1" d="M10.69,146.7h113.32v-41.4c-5.9-5.9-8.42-18.37-11.04-28.42-3.5-13.44-7.46-28.67-13.87-28.67s-10.37,15.23-13.87,28.67c-4.2,16.15-8.18,31.41-17.41,31.41s-13.32-12.28-17.37-24.16c-3.64-10.66-7.4-21.67-13.91-21.67s-10.27,11.02-13.91,21.67c-2.72,7.98-5.51,17.96-11.95,22.46v40.11Z"/>
      <path class="cls-1" d="M146.7,10.69H33.38v48.65c2.44-.79,2.81-.54,3.16-.54,9.13,0,13.32,12.28,17.38,24.16,3.64,10.66,7.4,21.67,13.91,21.67s10.37-15.23,13.87-28.67c4.21-16.15,8.18-31.41,17.41-31.41s13.21,15.26,17.42,31.41c3.5,13.44,7.46,28.67,13.87,28.67s10.4-13.37,13.88-25.17c.1-.33,1.28-4.3,2.43-8.11V10.69Z"/>
    </g>
  </g>
</svg>